<svg width="44" height="44" viewBox="0 0 44 44" fill="none" xmlns="http://www.w3.org/2000/svg">
<path d="M37.262 9.2619H30.143V6.52381C30.143 4.9262 29.5083 3.39402 28.3786 2.26433C27.2489 1.13465 25.7168 0.5 24.1192 0.5H19.7382C18.1406 0.5 16.6084 1.13465 15.4787 2.26433C14.349 3.39402 13.7144 4.9262 13.7144 6.52381V9.2619H6.59535C4.99774 9.2619 3.46556 9.89655 2.33587 11.0262C1.20619 12.1559 0.571541 13.6881 0.571541 15.2857V18.3524C0.569405 19.7213 1.03526 21.0497 1.89185 22.1175C2.74845 23.1852 3.94429 23.9281 5.28106 24.2229L19.7382 27.4209C21.2252 27.742 22.7636 27.742 24.2506 27.4209L38.642 24.2229C39.9788 23.9281 41.1746 23.1852 42.0312 22.1175C42.8878 21.0497 43.3537 19.7213 43.3515 18.3524V15.2857C43.3516 14.4891 43.1936 13.7004 42.8868 12.9652C42.58 12.2301 42.1304 11.5631 41.564 11.0028C40.9977 10.4426 40.3259 10.0003 39.5874 9.70144C38.849 9.40261 38.0586 9.25321 37.262 9.2619ZM26.8573 9.2619H17.0001V6.52381C17.0001 5.79762 17.2886 5.10118 17.8021 4.58768C18.3156 4.07419 19.012 3.78571 19.7382 3.78571H24.1192C24.8453 3.78571 25.5418 4.07419 26.0553 4.58768C26.5688 5.10118 26.8573 5.79762 26.8573 6.52381V9.2619Z" fill="white"/>
<path d="M24.9079 30.619C23.9296 30.8352 22.9308 30.9454 21.9289 30.9476C20.934 30.9478 19.9423 30.8376 18.9717 30.619L4.5803 27.4209C3.95577 27.2761 3.34685 27.0707 2.76221 26.8076V37.1905C2.76221 38.7881 3.39686 40.3203 4.52654 41.45C5.65622 42.5796 7.1884 43.2143 8.78602 43.2143H35.0717C36.6693 43.2143 38.2015 42.5796 39.3312 41.45C40.4609 40.3203 41.0955 38.7881 41.0955 37.1905V26.8076C40.5109 27.0707 39.902 27.2761 39.2775 27.4209L24.9079 30.619Z" fill="white"/>
</svg>
