<svg width="52" height="53" viewBox="0 0 52 53" fill="none" xmlns="http://www.w3.org/2000/svg">
<path d="M36.6128 32.7903C37.4442 32.7903 38.1182 32.1163 38.1182 31.2849C38.1182 30.4535 37.4442 29.7795 36.6128 29.7795C35.7814 29.7795 35.1074 30.4535 35.1074 31.2849C35.1074 32.1163 35.7814 32.7903 36.6128 32.7903Z" fill="white"/>
<path d="M17.043 19.2419C16.1398 19.2419 15.5376 18.6398 15.5376 17.7366C15.5376 16.8333 16.1398 16.2312 17.043 16.2312H41.129V12.1667C41.129 9.60753 39.0215 7.5 36.4624 7.5H15.3871C9.66667 7.5 5 12.0161 5 17.7366V36.1022C5 41.8226 9.66667 46.3387 15.2366 46.3387H42.3333C44.8925 46.3387 47 44.2312 47 41.672V20.8979C47 20.2957 46.6989 19.2419 45.4946 19.2419H17.043ZM36.6129 35.8011C34.0538 35.8011 32.0968 33.8441 32.0968 31.2849C32.0968 28.7258 34.0538 26.7688 36.6129 26.7688C39.172 26.7688 41.129 28.7258 41.129 31.2849C41.129 33.8441 39.172 35.8011 36.6129 35.8011Z" fill="white"/>
</svg>
