<svg width="44" height="44" viewBox="0 0 44 44" fill="none" xmlns="http://www.w3.org/2000/svg">
<g clip-path="url(#clip0_98_780)">
<path d="M24.6023 11.4587H20.3979V19.8979H11.9587V24.1023H20.3979V32.5414H24.6023V24.1023H33.0414V19.8979H24.6023V11.4587Z" fill="white"/>
<path d="M37.7028 6.79719C33.642 2.73641 28.2428 0.5 22.5 0.5C16.7572 0.5 11.358 2.73641 7.29719 6.79719C3.23641 10.858 1 16.2572 1 22C1 27.7428 3.23641 33.142 7.29719 37.2028C11.358 41.2636 16.7572 43.5 22.5 43.5C28.2428 43.5 33.642 41.2636 37.7028 37.2028C41.7636 33.142 44 27.7428 44 22C44 16.2572 41.7636 10.858 37.7028 6.79719ZM35.5609 26.6218H27.1218V35.0609H17.8782V26.6218H9.43912V17.3782H17.8782V8.93912H27.1218V17.3782H35.5609V26.6218Z" fill="white"/>
</g>
<defs>
<clipPath id="clip0_98_780">
<rect width="43" height="43" fill="white" transform="translate(1 0.5)"/>
</clipPath>
</defs>
</svg>
