<svg width="44" height="44" viewBox="0 0 44 44" fill="none" xmlns="http://www.w3.org/2000/svg">
<path d="M41.9832 13.4084C41.7535 8.1256 39.1374 3.92133 34.9873 2.15766C28.1774 -0.737712 23.0947 3.70904 21 6.08204C18.9055 3.70937 13.8219 -0.736727 7.01298 2.15766C2.86285 3.92133 0.24737 8.12724 0.0166982 13.4084C-0.339317 21.5607 4.94579 33.2875 20.8461 41.7509C20.9423 41.8025 21.058 41.8025 21.1542 41.7509C37.0541 33.2875 42.3392 21.5607 41.9832 13.4084ZM10.6286 5.64563C10.3546 5.68008 3.92959 6.58505 4.41817 15.2193C4.42842 15.4001 4.2902 15.5551 4.1094 15.5655H4.09037C3.91605 15.5658 3.77201 15.4297 3.76224 15.2558C3.23856 5.9941 10.4754 5.00316 10.5485 4.99529C10.7262 4.97183 10.8893 5.09692 10.9127 5.2746C10.9129 5.27657 10.9132 5.27846 10.9134 5.28043C10.9352 5.45983 10.8078 5.62307 10.6286 5.64563Z" fill="white"/>
</svg>
