<svg width="40" height="37" viewBox="0 0 40 37" fill="none" xmlns="http://www.w3.org/2000/svg">
<path d="M28.0511 26.0488C27.7913 23.0467 25.9691 20.1637 23.3278 18.706C20.4737 17.1291 16.75 17.5333 14.3252 19.7235C11.9221 21.8921 11.2293 26.056 13.3799 28.6395C15.3283 30.9813 18.8428 31.8906 21.4155 29.989C22.7216 29.022 23.6381 27.5029 23.6742 25.8575C23.7067 24.2519 22.8552 22.4982 21.2567 21.9606C19.9685 21.5276 18.233 22.0147 17.7711 23.4111C17.3598 24.6524 18.1897 26.1462 19.5175 26.2905C19.8639 26.3302 19.9541 25.8431 19.6077 25.7818C18.0489 25.5003 18.0706 23.3245 19.4201 22.7653C20.7624 22.2132 22.0686 23.1441 22.4871 24.4215C23.3098 26.9292 21.1376 29.6246 18.601 29.7725C16.0428 29.9241 13.8886 27.7447 13.7082 25.2658C13.5098 22.5596 15.3572 20.1962 17.9118 19.4673C22.9381 18.0276 27.4052 23.1405 26.3191 27.9864C26.0449 29.2096 25.4495 30.1081 24.6665 31.0607C24.3129 31.49 22.4005 32.8684 21.8557 33.1462C19.7015 34.2287 17.3381 34.3153 15.0505 33.6225C13.8056 33.2473 12.5355 32.6194 11.5396 31.7823C11.0092 31.3349 10.4319 30.9235 9.99169 30.3859C9.52262 29.8158 9.15458 29.1699 8.80097 28.524C8.06488 27.1818 7.54529 25.7962 7.39374 24.2663C7.2422 22.7436 7.31075 21.1884 7.66076 19.7199C7.73292 19.4168 7.02931 19.3699 6.88859 19.6116C6.0226 21.0802 5.99735 23.0106 6.1092 24.6812C6.22106 26.341 6.45559 28.1235 7.17364 29.6426C8.71076 32.8864 11.3304 35.3689 14.7979 36.4153C17.8325 37.3318 21.3433 36.704 24.0314 34.7014C25.8211 33.3663 26.5536 32.2189 27.1959 30.6385C27.7985 29.1555 28.2026 27.6725 28.0655 26.0524L28.0511 26.0488Z" fill="white" fill-opacity="0.8"/>
<path d="M39.9513 10.9048C39.6591 7.55275 37.9848 4.4749 35.1812 2.57696C32.5941 0.82334 29.2817 0.227978 26.3157 1.32128C23.4111 2.38933 21.0873 5.00893 20.51 8.06513C19.9219 11.1791 21.4482 14.3327 24.0209 16.1079C26.6585 17.9301 30.3245 17.9482 32.7312 15.7002C34.9683 13.6074 35.5998 10.0894 33.5719 7.61409C31.6162 5.22542 26.9544 5.13522 25.6518 8.27802C25.0817 9.65637 25.7348 11.4533 27.308 11.7492C28.6466 12.0017 29.8193 10.6595 29.242 9.38936C29.1302 9.144 28.6827 9.24864 28.7585 9.53369C28.9534 10.2626 28.3111 11.0383 27.557 10.9698C26.7126 10.8904 26.2868 9.95225 26.3807 9.19452C26.543 7.85946 27.8853 6.97904 29.1338 6.82749C31.7389 6.51718 33.5936 8.8842 33.3663 11.3414C33.1389 13.8023 30.7972 15.4765 28.4157 15.5162C26.193 15.5523 24.194 14.0837 23.1549 12.1894C20.8167 7.9244 24.4286 2.88727 28.9642 2.44345C34.0627 1.9419 38.14 6.6579 38.1003 11.5002C38.0498 17.5513 33.6188 22.2276 27.8925 23.6059C26.8606 23.8549 27.2611 25.3668 28.2497 25.1322C34.7518 23.5698 40.572 18.0095 39.9549 10.9084L39.9513 10.9048Z" fill="white" fill-opacity="0.8"/>
<path d="M21.9463 5.193C17.6885 0.145043 9.96321 -1.92971 4.34153 2.19815C1.68585 4.15022 0.101821 7.12703 0.00439813 10.4286C-0.0894167 13.5425 1.32141 16.5662 3.87246 18.3848C6.2936 20.1132 9.6998 20.6688 12.4637 19.4817C15.0833 18.3596 17.021 15.7255 17.3132 12.8858C17.6163 9.909 15.9854 6.89971 13.2539 5.60795C10.5766 4.34145 7.06938 5.13166 5.48174 7.71879C3.72091 10.5838 5.05597 15.1843 8.75444 15.5415C10.2952 15.6894 11.8431 14.4771 11.9983 12.9075C12.1354 11.5363 10.9374 10.2374 9.55187 10.3673C9.19465 10.3997 9.25599 10.8868 9.59517 10.8905C11.356 10.9013 11.5905 13.2358 10.0967 13.9034C8.9096 14.4374 7.56732 13.8564 6.86371 12.8353C5.47453 10.8219 6.41267 7.98941 8.50186 6.90693C10.7137 5.7595 13.4271 6.55693 14.7983 8.5956C16.0828 10.5044 16.0034 12.9147 14.9029 14.8848C13.8637 16.7394 12.0091 18.0853 9.85857 18.2441C7.6467 18.4101 5.50339 17.4755 3.97349 15.8951C0.542029 12.3518 1.9276 6.23579 5.65494 3.51516C7.85237 1.90948 10.6813 1.15896 13.3838 1.51979C16.3931 1.92392 19.0885 3.6198 21.0694 5.87857C21.4916 6.35847 22.3792 5.70898 21.939 5.18939L21.9463 5.193Z" fill="white" fill-opacity="0.8"/>
</svg>
