<svg width="65" height="65" viewBox="0 0 65 65" fill="none" xmlns="http://www.w3.org/2000/svg">
<g opacity="0.9">
<g filter="url(#filter0_di_57_9220)">
<circle cx="27.5" cy="27.5" r="22.5" fill="#F2F4F5" fill-opacity="0.8" shape-rendering="crispEdges"/>
</g>
<path d="M18.551 38C16.5899 38 15 36.3246 15 34.258V22.1292C15 20.0626 16.5899 18.3872 18.551 18.3872H22.6733V16.742C22.6733 14.6754 24.2631 13 26.2243 13H28.7852C30.7464 13 32.3363 14.6754 32.3363 16.742V18.3872H36.4585C38.4196 18.3872 40.0095 20.0626 40.0095 22.1292V34.258C40.0095 36.3246 38.4196 38 36.4585 38H18.551ZM16.9897 34.258C16.9897 35.1709 17.6942 35.9033 18.551 35.9033H36.449C37.3153 35.9033 38.0103 35.1609 38.0103 34.258V26.4029L37.62 26.5634C34.3831 27.9177 30.9749 28.5999 27.4905 28.5999C24.0061 28.5999 20.5979 27.9077 17.3705 26.5634L16.9802 26.4029V34.258H16.9897ZM18.551 20.4839C17.6847 20.4839 16.9897 21.2263 16.9897 22.1292V24.0955L17.1611 24.1758C20.4455 25.6906 23.9204 26.4631 27.5095 26.4631C31.0986 26.4631 34.5735 25.6906 37.858 24.1758L38.0293 24.0955V22.1292C38.0293 21.2163 37.3248 20.4839 36.468 20.4839H18.551ZM26.2243 15.0967C25.358 15.0967 24.663 15.8391 24.663 16.742V18.3872H30.3465V16.742C30.3465 15.8291 29.642 15.0967 28.7852 15.0967H26.2243Z" fill="#357FE9"/>
</g>
<defs>
<filter id="filter0_di_57_9220" x="0" y="0" width="65" height="65" filterUnits="userSpaceOnUse" color-interpolation-filters="sRGB">
<feFlood flood-opacity="0" result="BackgroundImageFix"/>
<feColorMatrix in="SourceAlpha" type="matrix" values="0 0 0 0 0 0 0 0 0 0 0 0 0 0 0 0 0 0 127 0" result="hardAlpha"/>
<feOffset dx="5" dy="5"/>
<feGaussianBlur stdDeviation="5"/>
<feComposite in2="hardAlpha" operator="out"/>
<feColorMatrix type="matrix" values="0 0 0 0 0.131076 0 0 0 0 0.335212 0 0 0 0 0.629167 0 0 0 0.75 0"/>
<feBlend mode="normal" in2="BackgroundImageFix" result="effect1_dropShadow_57_9220"/>
<feBlend mode="normal" in="SourceGraphic" in2="effect1_dropShadow_57_9220" result="shape"/>
<feColorMatrix in="SourceAlpha" type="matrix" values="0 0 0 0 0 0 0 0 0 0 0 0 0 0 0 0 0 0 127 0" result="hardAlpha"/>
<feOffset dx="-5" dy="-5"/>
<feGaussianBlur stdDeviation="2.5"/>
<feComposite in2="hardAlpha" operator="arithmetic" k2="-1" k3="1"/>
<feColorMatrix type="matrix" values="0 0 0 0 0.209115 0 0 0 0 0.497387 0 0 0 0 0.9125 0 0 0 0.7 0"/>
<feBlend mode="normal" in2="shape" result="effect2_innerShadow_57_9220"/>
</filter>
</defs>
</svg>
