<svg width="40" height="41" viewBox="0 0 40 41" fill="none" xmlns="http://www.w3.org/2000/svg">
<path d="M39.8453 35.3601C39.7786 34.3384 38.9254 29.7389 37.844 25.9646C37.2015 23.7175 32.6231 8.2901 31.8577 6.26423C31.633 5.66736 30.657 1.68586 28.7224 0.825656C27.2829 0.186649 25.4009 0.0426964 23.8526 0.00758619C21.9917 -0.0310351 16.6304 0.0778094 14.7274 0.334114C13.7584 0.464022 12.7683 0.67468 11.9081 1.18027C11.0022 1.71394 10.5002 2.60224 10.2087 3.59234C10.0859 4.01016 4.54547 19.4376 3.45705 22.9135C2.37917 26.3543 0.395435 33.9416 0.251483 34.4332C-0.282193 36.2694 -0.0680207 39.3311 1.89113 40.1983C2.91284 40.6512 4.15925 40.5037 5.24767 40.5178C6.54675 40.5353 7.84232 40.5494 9.14139 40.581C11.4727 40.6337 16.669 40.595 17.8206 40.5424C18.5369 40.5108 19.3023 40.3809 19.541 39.8366C19.7517 39.3556 19.8922 38.5411 19.9027 37.8845C19.9132 37.2455 19.8746 34.6684 19.8781 33.9838C19.8781 33.4009 19.8711 31.1504 19.527 30.2902C19.1197 29.265 17.9681 28.949 16.8797 28.9174C13.5583 28.8261 10.1947 29.0438 6.86976 29.1456C6.17458 29.1666 5.87615 30.0093 7.06287 30.0163C9.73476 30.0339 12.4172 30.0444 15.0891 30.062C16.2828 30.069 17.6837 30.1252 18.0559 31.5015C18.2104 32.0738 18.3262 33.4009 17.8101 33.573C17.2308 33.7661 16.188 33.7134 15.6719 33.7169C14.4746 33.7275 13.8146 33.6748 12.6173 33.6853C10.293 33.7134 5.37406 33.9873 5.3214 33.9838C4.94572 33.9767 4.9703 34.7316 5.31438 34.7422C7.74752 34.8089 9.69263 34.9037 12.2732 34.9774C13.4775 35.009 17.5433 34.6825 18.0383 35.5883C18.5053 36.445 18.4175 38.1865 18.1156 38.4603C17.8171 38.7342 17.1641 38.6745 16.7884 38.6956C16.497 38.7131 14.2043 38.6675 13.8918 38.7377C10.9461 38.8009 8.00382 38.8711 5.05807 38.85C3.83623 38.843 2.14744 38.8395 1.72963 37.4105C1.32235 36.0061 1.98242 34.219 2.2949 32.8497C3.78357 26.3332 9.59783 10.2703 10.2719 8.51831C11.2866 5.88153 12.5401 2.63734 14.4782 2.29326C19.046 1.4787 23.3435 1.04685 27.5673 2.6549C28.8523 3.14293 29.9618 5.67789 30.5025 7.29999C31.8226 11.2639 33.0409 15.9687 34.3119 19.9502C35.0212 22.1762 35.618 24.7638 36.3799 27.4533C36.552 28.0642 37.8897 33.9803 37.9669 35.1213C38.0336 36.1606 38.5041 37.8459 37.1172 38.7026C36.6924 38.9659 35.8989 38.9133 35.3863 38.9133C34.7403 38.9133 34.0978 38.9133 33.4517 38.9133C30.9554 38.9133 28.4275 39.0396 25.9311 38.9343C24.1967 38.8606 23.7016 37.874 23.6314 36.5714C23.6068 36.115 23.4804 35.2969 23.8034 34.9739C24.1124 34.6649 25.3694 34.7702 26.3595 34.7738C29.235 34.7913 31.6541 34.8931 34.5191 34.6298C35.0457 34.5806 34.9018 33.8504 34.4418 33.7977C32.7565 33.6151 30.0109 33.4361 28.3186 33.4466C26.9247 33.4536 24.0141 33.7591 23.7894 33.3097C23.6981 33.1271 23.7227 31.986 23.7789 31.7402C23.8877 31.2487 24.0036 30.6904 26.6368 30.5535C29.1156 30.4236 31.468 30.722 33.9222 30.3463C34.3365 30.2831 34.319 29.5248 33.9538 29.4756C32.3352 29.2579 30.7553 29.1772 29.1226 29.1702C27.7604 29.1631 26.3173 29.121 24.9586 29.2439C24.1475 29.3176 22.859 29.293 22.4482 30.0935C22.1743 30.6307 22.1673 31.5296 22.1533 32.1721C22.1392 32.7479 22.1182 35.0757 22.1182 35.4233C22.1182 35.5848 22.0865 37.9758 22.4763 39.0607C22.722 39.7454 23.3435 40.437 24.0457 40.4757C26.3805 40.6056 28.7399 40.5915 31.0783 40.6231C32.2334 40.6407 33.3885 40.6547 34.5437 40.6723C35.5267 40.6863 36.6222 40.6723 37.5877 40.4405C38.6972 40.1772 39.3678 39.5207 39.7821 38.6289C40.1894 37.7511 39.912 36.2589 39.8523 35.3496L39.8453 35.3601Z" fill="white" fill-opacity="0.8"/>
</svg>
