<svg width="38" height="45" viewBox="0 0 38 45" fill="none" xmlns="http://www.w3.org/2000/svg">
<path d="M36.94 28.5873C35.9175 25.8013 33.9651 23.4749 33.0923 20.6069C32.2479 17.8316 33.2989 12.1171 33.3452 12.085C33.5127 11.6076 32.8678 11.1837 32.4403 11.5008C29.9928 13.3106 27.5238 15.3342 25.9598 17.9991C25.2437 19.2175 24.745 20.5499 24.6096 21.9643C24.492 23.197 24.7165 24.3976 25.0585 25.5662C24.3958 25.3096 23.7902 25.0246 23.2736 24.4297C22.472 23.5069 22.1692 22.2992 22.1692 21.0986C22.1692 18.5762 23.2807 16.2391 23.7439 13.7987C24.1821 11.4865 23.8757 9.22066 23.0634 7.02606C22.6679 5.95726 22.1799 4.92765 21.6312 3.92654C21.0968 2.95037 20.313 1.98133 19.8392 0.958842C19.7715 0.762895 19.6967 0.574074 19.604 0.385253C19.5969 0.388815 19.5898 0.392378 19.5862 0.39594C19.1338 -0.27384 17.812 -0.0707682 18.1149 0.830586C18.4497 1.83169 18.7348 2.85061 18.7419 3.91941C18.7526 5.05947 18.4426 6.17102 18.0258 7.222C17.4094 8.78245 16.4903 10.1754 15.5034 11.5186C15.0296 12.028 14.5415 12.5268 14.057 13.047C12.6248 14.5825 11.328 16.2355 10.4373 18.1487C9.66778 19.7982 9.26163 21.7862 9.4362 23.6601C7.61568 21.1591 4.9045 19.4704 1.86555 18.9111C1.20646 18.79 0.921441 19.6023 1.28483 20.0476C2.72771 21.8182 2.74196 24.4047 2.261 26.5316C1.73373 28.8438 0.693431 31.0063 0.294413 33.3541C-0.0511653 35.3848 0.0877782 37.64 1.3739 39.3394C2.46051 40.7716 4.38435 42.6277 8.29259 42.0506C8.75217 41.9829 8.5776 41.3737 8.13583 41.3879C3.89626 41.5091 1.95462 39.2005 1.39884 37.2517C0.768249 35.0357 1.41309 32.6986 2.13275 30.5895C3.21224 27.4259 4.65155 23.8489 3.30843 20.7067C5.32846 21.4157 7.15254 22.7516 8.32822 24.5472C9.10488 25.73 9.61434 27.0696 9.87085 28.459C9.99554 29.1466 10.049 29.8414 10.0312 30.5361C10.0134 31.3056 10.0525 32.0609 10.049 32.8197C10.049 32.9088 10.0704 32.9872 10.106 33.0549C10.049 34.2127 10.2271 35.3813 10.644 36.4643C11.9229 39.7598 15.4215 41.6053 18.8559 41.5126C22.5076 41.4129 25.5573 39.1506 27.0073 35.8373C27.8124 33.9954 28.0796 31.9148 27.7447 29.9304C27.3315 27.4936 25.9313 25.2598 25.9349 22.7481C25.9385 19.0002 28.7173 16.0895 31.4927 13.7167C31.4855 13.7417 31.6173 13.6277 31.7705 13.4959C31.0936 15.3342 30.8906 17.3328 31.1435 19.3066C31.514 22.2137 32.85 24.533 34.3321 27.009C35.8676 29.5777 37.2036 32.2248 36.2346 35.2708C35.3617 38.0141 32.1268 41.2276 27.4597 41.9188C27.1747 41.9615 27.0643 42.4674 27.3671 42.5031C32.3869 43.0375 35.9602 39.147 37.0967 36.6852C38.3472 33.9847 37.9197 31.2842 36.9293 28.5873H36.94ZM26.569 31.6191C26.5619 33.0656 26.2163 34.5013 25.5679 35.7946C24.2355 38.4416 21.6063 40.2479 18.6065 40.2265C15.8276 40.2087 13.0274 38.7658 11.9728 36.0903C11.0287 33.6926 11.5168 30.6073 13.4228 28.8046C15.254 27.0732 18.1576 26.9378 20.3237 28.1099C22.8746 29.4886 23.8721 32.7592 22.2155 35.2459C20.281 38.153 15.2398 37.4654 15.2647 33.5893C15.2754 31.9789 16.8252 29.9732 18.6243 30.7356C19.4295 31.074 19.9995 32.15 19.547 32.9694C19.116 33.7425 17.9545 33.9242 17.356 33.2651C17.1494 33.0371 16.7931 33.3078 16.9891 33.5608C17.7443 34.5405 19.3618 34.4336 20.1099 33.486C21.0612 32.2747 20.2596 30.4791 18.9984 29.8627C17.3952 29.0789 15.4215 29.9197 14.5629 31.4018C13.7542 32.7948 13.8183 34.6046 14.6163 35.9905C16.4475 39.1684 21.2286 38.887 23.2095 36.0297C25.2117 33.1404 24.2248 29.1787 21.3996 27.2549C20.199 26.4354 18.7526 25.9794 17.3061 25.9367C17.2634 25.6018 17.1209 25.3132 16.957 24.9106C16.6862 24.2373 16.5544 23.4998 16.5117 22.7766C16.419 21.152 16.9036 19.6379 17.5377 18.1629C18.7882 15.2594 20.5802 12.4556 20.8937 9.24203C20.9187 8.98196 20.5018 8.94633 20.4627 9.20641C19.8926 12.8795 17.1636 15.5444 15.7778 18.8826C15.1899 20.3005 14.7731 21.9144 14.9085 23.4606C14.9797 24.2693 15.1543 25.3524 15.6709 26.0685C14.5843 26.2822 13.5511 26.7561 12.6889 27.5078C12.012 26.8095 11.5275 26.04 11.2068 25.2277C10.7758 23.9879 10.7116 22.6234 10.9325 21.2696C11.3458 18.7187 12.835 16.5419 14.3954 14.5468C14.8657 13.9946 15.3502 13.4531 15.8348 12.9187C16.7646 11.8927 17.8263 10.7704 18.1932 9.40948C18.4747 8.93564 18.7383 8.45112 18.9699 7.94522C19.5364 6.7161 20.0066 5.30529 20.1456 3.89448C20.2916 4.16524 20.4341 4.43244 20.5731 4.68895C21.1894 5.82544 21.7488 7.00112 22.1193 8.24449C22.4827 9.46292 22.6858 10.7241 22.6216 11.996C22.5504 13.4246 22.1371 14.7927 21.7345 16.1572C21.022 18.5691 20.2988 21.2482 21.307 23.6886C21.934 25.2028 23.6584 27.066 25.4433 26.7561C25.4539 26.7917 25.4682 26.8273 25.4789 26.863C26.0168 28.4127 26.5762 29.9589 26.5655 31.6191H26.569Z" fill="white" fill-opacity="0.8"/>
<path d="M31.942 31.8045C31.2472 27.2657 28.9066 26.2254 30.0466 18.2522C30.0858 17.9743 29.6227 17.8816 29.5336 18.1453C26.5695 26.8881 34.4501 33.6892 28.0765 39.7493C24.952 42.7205 20.4702 43.3013 16.3375 42.9842C12.4613 42.6849 7.97948 40.9143 7.07813 36.6747C6.57223 34.2913 7.47003 31.8722 7.25271 29.471C7.10307 27.8001 6.47604 26.033 4.92628 25.1851C4.70896 25.064 4.49164 25.3383 4.7054 25.4915C6.35491 26.6743 6.6613 28.7941 6.46892 30.6894C6.29435 32.4209 5.81694 34.1559 5.88463 35.8873C5.81338 37.601 6.13046 39.3324 7.0995 40.6969C8.62432 42.8381 11.389 43.8392 13.8508 44.4057C19.4726 45.6989 26.2132 45.1289 29.9967 40.2124C30.8945 39.0474 31.5536 37.6473 31.8671 36.208C32.0702 35.2746 32.2483 33.8424 31.9384 31.8081L31.942 31.8045Z" fill="white" fill-opacity="0.8"/>
</svg>
