<svg width="40" height="41" viewBox="0 0 40 41" fill="none" xmlns="http://www.w3.org/2000/svg">
<path d="M35.2436 6.24086C33.8871 4.64717 31.6596 2.93489 29.7657 2.04168C26.0558 0.296044 19.24 -1.44219 11.5755 1.89343C6.36082 4.16165 3.71826 8.67956 2.59527 10.6105C0.223275 14.6874 -0.614336 20.0466 0.464181 24.6794C2.45073 33.1927 10.2635 39.4488 18.8916 40.0677C22.9018 40.3568 27.29 39.408 30.6441 37.1213C33.8537 34.9346 36.8076 31.7583 38.3235 28.1929C40.6732 22.6706 41.2847 13.3346 35.2399 6.24086H35.2436ZM21.0116 1.48575C25.3664 1.48575 28.8429 3.30922 29.6583 4.09494C30.5144 4.91773 31.037 5.89988 31.163 6.42987C31.4558 7.66035 31.5707 8.83523 31.0926 9.89892C30.103 12.0967 27.5086 13.1641 25.4739 11.8039C25.3034 11.689 24.1063 11.0701 23.8246 8.83523C23.7023 7.8679 24.4473 6.67819 25.7667 6.39281C26.886 6.1519 27.9793 6.63372 28.3314 7.76783C28.4723 8.21628 28.4686 8.71292 28.2944 9.15397C28.198 9.39117 28.0238 9.66542 27.8088 9.82108C27.5828 10.0249 27.2863 10.1621 27.0009 10.0175C26.4746 9.75067 26.5339 9.31704 26.9416 9.07613C27.2121 8.90564 26.886 8.49796 26.6228 8.62767C25.7371 9.07613 25.8594 10.2473 26.7303 10.6513C27.8088 11.1516 28.8911 10.2584 29.2283 9.26144C30.0845 6.73008 27.39 4.6657 25.0699 5.48478C23.9729 5.87394 23.2798 6.6819 22.9685 7.6344C22.9463 7.60846 22.9277 7.58252 22.9055 7.56028C21.3044 5.71086 18.9324 4.40256 16.6234 3.65761C15.4448 3.27586 14.2069 3.07943 12.969 3.19803C12.906 3.20544 12.8393 3.21285 12.7726 3.22027C14.3959 2.13804 18.3653 1.49316 21.0042 1.49316L21.0116 1.48575ZM7.58017 7.32308C8.38072 6.54848 9.13309 5.66268 10.1449 5.22905C12.5465 4.20613 14.1032 4.40627 14.8333 4.51375C16.427 4.74724 18.0762 5.34024 19.3883 6.25939C22.9388 8.74257 23.2539 10.6995 23.4948 11.2962C23.7616 11.9522 23.606 12.7268 23.391 13.4903C22.6942 15.9772 19.8034 17.5338 17.4017 16.4182C16.1861 15.8549 15.2558 14.68 15.2336 13.3124C15.215 12.0708 15.8599 10.7402 17.0385 10.2288C18.1986 9.72472 19.7329 10.1584 20.4408 11.2109C20.83 11.7928 20.9486 12.5859 20.6113 13.2234C20.1814 14.0351 18.7137 13.9721 18.7953 12.875C18.8175 12.5748 18.3134 12.4525 18.2282 12.7564C17.8242 14.1945 19.6143 15.1766 20.7892 14.4835C22.2013 13.6459 22.0975 11.6038 21.2006 10.4363C20.2296 9.17249 18.4395 8.60173 16.9125 9.05019C15.2706 9.5357 14.2143 11.1294 14.0476 12.7861C14.0402 12.8491 14.0402 12.9121 14.0364 12.9788C12.9765 11.5519 11.5199 10.5142 9.74832 10.125C8.13611 9.77291 6.45718 9.90633 4.91538 10.4586C5.6974 9.32815 6.59801 8.27929 7.58017 7.32678V7.32308ZM4.35203 12.0597C5.51208 11.2776 8.99595 10.9478 11.2234 12.1449C13.1803 13.1975 14.4775 15.4212 14.1921 17.6672C13.9216 19.7946 12.1055 21.7923 9.96328 22.1221C8.84029 22.2963 7.67653 21.796 7.07241 20.7397C6.49795 19.7353 6.46829 18.4715 6.93157 17.4522C7.47269 16.2588 8.95519 15.4064 10.0745 16.496C10.5785 16.989 10.6934 17.7376 10.497 18.3973C10.3858 18.7754 10.182 19.1015 9.83727 19.3017C9.72238 19.3684 9.44441 19.5166 9.30728 19.4833C8.87735 19.3795 8.88106 18.8643 9.16273 18.6716C9.47777 18.4529 9.09602 17.9711 8.78099 18.1342C7.4801 18.8161 8.50302 20.4691 9.70755 20.4247C11.4124 20.3616 12.1277 18.2491 11.62 16.8667C11.0789 15.3879 9.3221 14.5836 7.84331 15.1395C6.34599 15.7029 5.45649 17.3114 5.45278 18.8087C5.44537 21.0028 6.32746 22.1295 7.66541 22.8189C9.17385 23.5935 10.9529 23.4378 12.4057 22.6187C14.6925 21.3253 15.7228 18.868 15.4522 16.459C17.0682 17.9711 19.7441 18.4678 21.7899 17.3781C23.3873 16.5257 24.5918 14.9876 24.8364 13.1752C24.8624 12.9899 24.8735 12.8083 24.8772 12.623C26.9082 13.8868 29.7398 13.5347 31.415 11.7335C32.5084 10.5586 33.005 8.93529 32.7974 7.34902C32.7493 6.97098 32.6529 6.60407 32.5269 6.24456C33.5721 7.14889 34.5431 8.10139 35.3362 9.26886C36.3999 10.8292 37.2449 12.5526 37.812 14.3538C37.9899 14.9209 38.1381 15.4991 38.2642 16.0772C37.6675 15.6288 36.904 15.3174 36.285 15.0877C35.1694 14.6726 33.9612 14.4724 32.7752 14.4613C30.166 14.4354 27.6643 15.21 25.3664 16.4145C22.8128 17.7562 20.5187 19.5129 18.1318 21.1177C16.8532 21.9776 15.6079 22.9041 14.2292 23.575C12.932 24.205 9.1405 25.7172 5.41202 24.6757C4.15931 24.3273 2.86953 23.7084 1.77619 22.9449C1.31662 19.5648 1.94297 13.683 4.35203 12.0634V12.0597ZM5.30453 30.9318C4.40392 29.8385 3.63673 28.6303 3.04002 27.3257C2.53597 26.2249 2.258 25.4651 2.02451 24.3051C2.60268 24.7943 3.37358 25.076 4.10742 25.4244C5.24894 25.9692 6.33487 26.3102 7.60241 26.4547C10.4488 26.7809 13.3804 25.7802 15.8599 24.457C16.4159 24.1605 21.6787 20.3579 22.861 19.5426C25.1885 17.9452 27.694 16.4441 30.5107 15.9327C31.8931 15.6807 33.3349 15.6436 34.7173 15.9253C35.4289 16.0698 36.1368 16.307 36.7817 16.6406C37.3821 16.9519 37.8602 17.1743 38.5162 17.6227C38.5199 17.6227 38.5273 17.6227 38.5347 17.6264C38.6718 18.7272 38.7126 19.8391 38.6459 20.9435C37.0782 19.891 35.1843 19.5907 33.2681 19.8131C30.9221 20.0874 28.7576 21.6366 26.9342 23.0413C24.8957 24.609 22.987 26.3139 20.704 27.5295C18.4246 28.7415 15.96 29.6235 13.4323 30.1424C10.749 30.6909 8.03233 30.8058 5.30824 30.9244L5.30453 30.9318ZM6.31634 32.0511C10.7194 32.4477 14.9111 31.6472 18.8027 29.9645C21.045 28.9935 23.1204 27.7074 25.0662 26.2397C27.0194 24.7647 28.9059 23.0672 31.2334 22.2148C33.3682 21.4327 36.5408 21.2993 38.4087 22.9523C38.2716 23.7232 38.0826 24.4867 37.8342 25.2391C37.8083 25.3206 37.7786 25.3984 37.7527 25.4763C36.6223 25.3354 33.6758 25.9766 31.7226 27.3071C29.3951 28.8934 28.3907 29.9905 26.4709 31.3136C22.4459 34.0821 16.9792 36.4171 12.5614 36.28C10.1041 35.2348 8.12869 33.9895 6.32005 32.0585L6.31634 32.0511ZM31.6003 33.9413C28.6872 36.0502 25.2478 37.5178 21.6454 37.8032C19.3808 37.9848 17.2498 37.8403 15.0408 37.2028C19.0695 37.3288 22.7498 35.2941 26.1262 33.1445C28.1943 31.8288 30.0548 30.2017 32.0599 28.7933C33.283 27.9335 35.0657 26.5733 37.1894 26.9365C35.9663 29.5679 33.9686 32.2216 31.5966 33.9376L31.6003 33.9413Z" fill="white" fill-opacity="0.8"/>
</svg>
